<svg width="42" height="42" viewBox="0 0 94 111" fill="none" xmlns="http://www.w3.org/2000/svg">
  <path fill-rule="evenodd" clip-rule="evenodd" d="M49.9138 6.15454C48.9905 5.59176 47.9424 5.29561 46.8761 5.29592C45.8095 5.29567 44.7616 5.59181 43.8379 6.15454L7.82003 28.1006C6.89643 28.6634 6.1295 29.4728 5.59624 30.4476C5.06302 31.4224 4.78231 32.5281 4.78232 33.6536V77.5457C4.78229 78.6711 5.06302 79.7766 5.59624 80.7516C6.12945 81.726 6.89643 82.5356 7.82003 83.0983L43.8379 105.044C44.7615 105.607 45.8093 105.903 46.8758 105.903C47.9424 105.903 48.99 105.607 49.9138 105.044L63.4386 96.8036L66.6376 100.336L52.1628 109.155C50.5553 110.135 48.7321 110.65 46.8761 110.65C45.0201 110.65 43.1968 110.135 41.5894 109.155L5.57152 87.2093C3.96611 86.2274 2.63289 84.8185 1.7051 83.1226C0.777304 81.4271 0.287405 79.504 0.284363 77.5457V33.6536C0.28731 31.6955 0.777112 29.7725 1.70482 28.0767C2.63254 26.381 3.96569 24.9718 5.57105 23.9901L41.5894 2.04405C43.197 1.06535 45.0202 0.549776 46.8761 0.549011H46.878C48.734 0.549846 50.5572 1.06541 52.1646 2.04405L88.1825 23.9901C89.7877 24.9718 91.1208 26.381 92.0488 28.0768C92.9764 29.7725 93.4664 31.6955 93.4692 33.6536V77.5457C93.4659 79.504 92.9759 81.4271 92.0479 83.123C91.1199 84.8185 89.7862 86.2279 88.1806 87.2093L77.1885 93.8343L74.1405 90.3701L85.9317 83.0983C86.8555 82.5356 87.6221 81.726 88.1553 80.7516C88.6885 79.7766 88.9694 78.6711 88.9694 77.5457V33.6536C88.9694 32.5281 88.6885 31.4224 88.1553 30.4476C87.6221 29.4728 86.8555 28.6634 85.9317 28.1006L49.9138 6.15454Z" fill="url(#paint0_linear_1_9)"/>
  <path d="M44.4025 67.3131H52.1931L58.7234 76.3812L60.442 78.7994L63.5136 82.5293C66.9167 86.6619 71.5329 89.6202 76.7092 90.986L79.0642 91.6073V91.6073C77.8929 94.3543 74.7362 95.6559 71.9691 94.5327L66.3401 92.2479C65.2968 91.8244 64.3401 91.2131 63.5175 90.4443L55.9738 83.3939L54.3699 81.0967L44.4025 67.3131ZM72.5861 55.7058C72.5861 62.2349 71.4691 67.8773 69.235 72.6331C67.0009 77.3888 63.9363 81.0564 60.041 83.6358C56.1457 86.2151 51.6966 87.5048 46.6938 87.5048C41.6911 87.5048 37.242 86.2151 33.3467 83.6358C29.4514 81.0564 26.3867 77.3888 24.1527 72.6331C21.9186 67.8773 20.8016 62.2349 20.8016 55.7058C20.8016 49.1768 21.9186 43.5344 24.1527 38.7786C26.3867 34.0229 29.4514 30.3553 33.3467 27.7759C37.242 25.1966 41.6911 23.9069 46.6938 23.9069C51.6966 23.9069 56.1457 25.1966 60.041 27.7759C63.9363 30.3553 67.0009 34.0229 69.235 38.7786C71.4691 43.5344 72.5861 49.1768 72.5861 55.7058ZM65.7121 55.7058C65.7121 50.3456 64.8624 45.8216 63.1629 42.1338C61.4826 38.4461 59.2008 35.6552 56.3175 33.7609C53.4533 31.8667 50.2454 30.9196 46.6938 30.9196C43.1423 30.9196 39.9248 31.8667 37.0415 33.7609C34.1773 35.6552 31.8955 38.4461 30.1961 42.1338C28.5158 45.8216 27.6756 50.3456 27.6756 55.7058C27.6756 61.0661 28.5158 65.5901 30.1961 69.2778C31.8955 72.9656 34.1773 75.7565 37.0415 77.6508C39.9248 79.545 43.1423 80.4921 46.6938 80.4921C50.2454 80.4921 53.4533 79.545 56.3175 77.6508C59.2008 75.7565 61.4826 72.9656 63.1629 69.2778C64.8624 65.5901 65.7121 61.0661 65.7121 55.7058Z" fill="url(#paint1_linear_1_9)"/>
  <path d="M72.4992 89.8752V89.8752C73.7153 90.1961 75.0034 90.1048 76.1621 89.6157L76.7196 89.3803" stroke="#94D2C9" stroke-width="0.48173"/>
  <defs>
    <linearGradient id="paint0_linear_1_9" x1="46.8768" y1="110.65" x2="46.8768" y2="0.549011" gradientUnits="userSpaceOnUse">
      <stop stop-color="#B0D8BC"/>
      <stop offset="0.5" stop-color="#56C3E6"/>
      <stop offset="0.996" stop-color="#4C99D4"/>
    </linearGradient>
    <linearGradient id="paint1_linear_1_9" x1="46.7082" y1="4.01317" x2="46.7082" y2="106.949" gradientUnits="userSpaceOnUse">
      <stop stop-color="#4C99D4"/>
      <stop offset="0.505208" stop-color="#56C3E6"/>
      <stop offset="0.989583" stop-color="#B0D8BC"/>
    </linearGradient>
  </defs>
</svg>
